HIERARCHY
ROOT Hips
{
  OFFSET -250.96 95.9489 222.142
  CHANNELS 6 Xposition Yposition Zposition Zrotation Xrotation Yrotation
  JOINT ToSpine
  {
    OFFSET -0.0105055 1.38907 -7.13956
    CHANNELS 3 Zrotation Xrotation Yrotation
    JOINT Spine
    {
      OFFSET 0.0105055 10 1
      CHANNELS 3 Zrotation Xrotation Yrotation
      JOINT Spine1
      {
        OFFSET 0 12 1.60637
        CHANNELS 3 Zrotation Xrotation Yrotation
        JOINT Neck
        {
          OFFSET 0 27 2.26658
          CHANNELS 3 Zrotation Xrotation Yrotation
          JOINT Head
          {
            OFFSET 0 9 2.12705
            CHANNELS 3 Zrotation Xrotation Yrotation
            End Site
            {
              OFFSET 0 11 2
            }
          }
        }
        JOINT LeftShoulder
        {
          OFFSET 8 19.6109 2.86452
          CHANNELS 3 Zrotation Xrotation Yrotation
          JOINT LeftArm
          {
            OFFSET 12 1 0.681055
            CHANNELS 3 Zrotation Xrotation Yrotation
            JOINT LeftForeArm
            {
              OFFSET 19 0 -1.52608
              CHANNELS 3 Zrotation Xrotation Yrotation
              JOINT LeftHand
              {
                OFFSET 23 0 0
                CHANNELS 3 Zrotation Xrotation Yrotation
                End Site
                {
                  OFFSET 10 0 0
                }
              }
            }
          }
        }
        JOINT RightShoulder
        {
          OFFSET -8 19.6109 2.86452
          CHANNELS 3 Zrotation Xrotation Yrotation
          JOINT RightArm
          {
            OFFSET -12 1 0.681055
            CHANNELS 3 Zrotation Xrotation Yrotation
            JOINT RightForeArm
            {
              OFFSET -19 0 -1.52608
              CHANNELS 3 Zrotation Xrotation Yrotation
              JOINT RightHand
              {
                OFFSET -23 0 0
                CHANNELS 3 Zrotation Xrotation Yrotation
                End Site
                {
                  OFFSET -10 0 0
                }
              }
            }
          }
        }
      }
    }
  }
  JOINT LeftUpLeg
  {
    OFFSET 9 -7.17245 0
    CHANNELS 3 Zrotation Xrotation Yrotation
    JOINT LeftLeg
    {
      OFFSET 0 -44.1113 0
      CHANNELS 3 Zrotation Xrotation Yrotation
      JOINT LeftFoot
      {
        OFFSET 0 -36.1829 0
        CHANNELS 3 Zrotation Xrotation Yrotation
        JOINT LeftToeBase
        {
          OFFSET 0 -4.84184 13
          CHANNELS 3 Zrotation Xrotation Yrotation
          End Site
          {
            OFFSET 0 1 6
          }
        }
      }
    }
  }
  JOINT RightUpLeg
  {
    OFFSET -9 -7.17245 0
    CHANNELS 3 Zrotation Xrotation Yrotation
    JOINT RightLeg
    {
      OFFSET 0 -44.0551 0
      CHANNELS 3 Zrotation Xrotation Yrotation
      JOINT RightFoot
      {
        OFFSET 0 -36.1469 0
        CHANNELS 3 Zrotation Xrotation Yrotation
        JOINT RightToeBase
        {
          OFFSET 0 -4.92256 13
          CHANNELS 3 Zrotation Xrotation Yrotation
          End Site
          {
            OFFSET 0 1 6
          }
        }
      }
    }
  }
}
MOTION
Frames:	19
Frame Time:	0.0333333
-250.96 95.9434 222.142 1.29084 0.305568 123.559 0 0 0 9.40185 -10.9775 0.45217 -12.9995 13.7494 2.79763 18.0316 1.87012 -32.3927 0.657344 -1.79856 -26.8939 -25.5423 3.16061 -6.4371 -48.2765 -2.90412 -0.840014 -5.44284 -3.46166 -57.6374 -42.7183 -3.21178 8.20081 24.8239 5.25025 13.3047 48.8517 8.34151 4.16913 25.1981 -16.6639 58.6401 7.79697 0.338526 4.84466 -0.195623 0.312363 4.56438 2.92093 7.79429 1.85497 1.22809 -7.78705 0.083642 0.907677 -1.2301 -3.61876 -3.45083 3.66787 -10.549 3.19873 2.92662 -2.02391 -13.9591 -0.189171 -0.0230911 3.96676 -14.8778 -4.51635 
-250.96 95.941 222.142 1.27466 0.361853 123.552 0 0 0 9.223 -11.0744 0.466257 -12.5779 13.663 2.67805 17.9647 4.84578 -30.6817 -0.176227 -3.82712 -24.8438 -26.3127 3.21433 -6.37641 -47.526 -2.66297 -0.733889 -5.67278 -3.59468 -57.7405 -42.6912 -3.31521 8.47016 24.6935 5.2566 13.3912 48.6792 8.40237 4.05045 25.6248 -16.7815 58.9545 4.97893 0.162433 3.82001 -0.234331 0.304615 4.59673 2.88738 7.8952 1.78938 1.12943 -7.93963 0.0780357 0.838016 -0.891649 -3.37209 -3.48377 3.65455 -10.5134 3.15077 2.95258 -2.11263 -14.1125 -0.142549 -0.0174983 3.96413 -14.8605 -4.36625 
-250.96 95.9872 222.161 1.23137 0.498609 123.583 0 0 0 8.83502 -11.1695 0.483719 -11.964 13.5429 2.52609 16.7568 6.42845 -27.7823 -0.836411 -2.21513 -21.9717 -27.1063 3.21905 -6.16245 -46.7765 -2.27708 -0.831674 -5.69481 -3.58831 -57.887 -42.5123 -3.4744 8.91623 24.3541 5.14638 13.215 48.8218 8.66163 4.13662 25.7703 -16.8927 58.9567 4.0501 0.143987 4.02184 -0.318794 0.418236 4.65845 2.82081 7.83237 1.99468 0.708937 -8.41223 0.052306 0.937842 -0.46048 -3.86231 -3.59772 3.6875 -10.5427 3.05356 3.00042 -2.10024 -13.5878 -0.400459 -0.0477682 3.85441 -14.3915 -4.29289 
-250.96 95.9991 222.194 1.17883 0.600201 123.653 0 0 0 8.50695 -11.2554 0.471384 -11.4472 13.4361 2.38888 15.6216 8.15571 -24.4796 -1.25059 -1.07778 -18.732 -27.6933 3.24945 -6.08997 -46.3285 -2.10564 -0.826971 -5.65731 -3.56133 -57.9099 -42.2691 -3.44293 8.89119 24.1788 5.12914 13.2496 48.8111 8.77433 4.00139 26.0339 -16.9977 59.1006 2.9324 0.0915445 3.57689 -0.374472 0.510071 4.67962 2.72683 7.6401 1.8674 0.709456 -8.38642 0.0520862 0.897494 -0.315188 -3.71247 -3.70464 3.68074 -10.6089 3.04341 3.06282 -2.11798 -13.4832 -0.497731 -0.0588476 3.7967 -14.1449 -4.06488 
-250.958 96.0074 222.236 1.13331 0.711435 123.751 0 0 0 8.09649 -11.3017 0.443428 -10.7754 13.3558 2.21332 14.4174 9.39145 -21.3777 -1.7057 0.408986 -15.7648 -28.0113 3.20877 -5.88521 -46.2364 -1.89695 -1.05226 -6.14436 -3.8939 -57.7555 -42.1163 -3.43533 8.90632 24.0449 5.06796 13.1214 48.8669 8.77958 3.9355 25.6949 -16.7737 59.0452 3.24688 0.121639 4.30219 -0.478236 0.554979 4.60409 2.71962 7.50856 1.79791 0.824586 -8.08556 0.057986 0.888532 -0.53988 -3.64176 -3.80592 3.68562 -10.701 3.04369 3.08555 -2.10629 -13.6129 -0.386768 -0.046193 3.88385 -14.511 -4.05245 
-250.941 96.0133 222.315 1.25312 0.785268 123.896 0 0 0 7.97797 -11.2285 0.357842 -10.4842 13.2582 2.04376 12.849 10.4711 -17.5844 -1.68269 2.16698 -12.3687 -28.6503 3.21699 -5.74033 -45.5826 -1.83938 -0.921438 -6.87805 -4.34767 -57.852 -42.1872 -3.64076 9.42197 24.1981 5.13121 13.2458 48.7452 8.66224 3.83006 25.5648 -16.6889 59.0225 2.8212 0.109636 4.44825 -0.373709 0.790565 4.72112 2.58887 7.24046 1.57351 1.17211 -7.8584 0.0803603 0.892058 -0.944094 -3.5965 -3.7157 3.83313 -10.6534 3.03697 3.0869 -2.31286 -13.8266 -0.419798 -0.0509163 3.88411 -14.5159 -4.20632 
-250.988 96.0366 222.274 0.780663 0.813584 123.884 0 0 0 8.11879 -11.8492 0.374002 -10.7424 13.3114 2.1426 11.6544 11.2143 -14.113 -1.5355 3.85935 -9.24828 -28.7769 3.23179 -5.75 -45.3235 -1.73256 -0.95991 -7.29692 -4.66241 -57.5928 -41.4031 -3.51622 9.28404 24.4773 5.26712 13.5378 48.4896 8.56296 3.61175 26.0362 -16.8973 59.2481 2.82934 0.108762 4.36959 -0.895739 0.668019 4.14163 2.87137 6.58403 2.21358 0.686856 -7.61305 0.0453413 0.908017 -0.240998 -3.76725 -4.12169 3.35219 -10.9646 3.10273 3.24262 -2.02254 -13.7082 -0.35768 -0.0429667 3.90634 -14.6029 -3.98359 
-251.187 96.1298 222.102 -0.937101 0.731458 123.74 0 0 0 7.76379 -14.0712 0.588806 -10.4938 13.9631 2.45684 10.3734 11.8087 -10.9759 -1.68348 5.48434 -6.47357 -28.9712 3.25125 -5.75533 -45.2241 -1.54467 -1.36192 -7.60664 -4.97323 -57.0108 -39.1332 -2.95285 8.29189 24.2889 5.27827 13.6719 48.6237 8.13964 3.39299 25.2536 -16.3378 59.1905 3.13614 0.105143 4.08408 -2.63324 0.0759713 2.15516 3.79078 4.29038 4.39494 0.71139 -6.09139 0.0377096 0.928066 -0.442395 -3.82409 -5.50567 1.46349 -12.0484 3.4489 3.86689 -0.946744 -13.9897 -0.398643 -0.048755 3.98094 -14.9246 -4.18816 
-251.106 96.0956 222.169 -0.378185 0.856409 123.796 0 0 0 7.90137 -13.4796 0.571395 -10.5478 14.0405 2.40147 9.49177 13.2495 -8.52049 -2.09639 5.55967 -4.14763 -29.1696 3.25586 -5.71693 -44.9777 -1.33094 -1.02225 -8.12097 -5.17771 -57.6892 -36.0212 -2.28856 7.02612 24.3371 5.26585 13.6065 48.2922 7.00209 3.70012 21.3857 -14.1795 57.9731 5.42387 0.112924 2.31259 -2.19055 0.286974 2.70503 3.59339 5.1407 3.83157 0.590859 -6.5891 0.03541 0.937656 -0.591791 -3.84423 -5.18484 2.06684 -11.8118 3.40198 3.85302 -1.22942 -13.6479 -0.656262 -0.0786335 3.8645 -14.4313 -4.11512 
-250.908 96.0079 222.365 1.29006 0.887892 124.006 0 0 0 8.52527 -11.2137 0.548097 -10.6782 13.1673 2.2135 8.90836 13.4326 -6.32885 -2.57516 6.48554 -2.0162 -29.3677 3.33298 -5.88352 -44.8327 -1.10774 -1.02094 -8.59923 -5.51079 -57.5825 -32.7513 -1.62839 5.53668 24.2521 5.21426 13.4858 48.3181 7.13338 3.61136 22.2932 -14.6106 58.398 4.89551 0.0841409 1.97757 -0.474125 0.856093 4.59733 2.74398 7.22365 1.58521 1.12702 -7.72897 0.0756708 0.906543 -0.64709 -3.70279 -3.87599 3.81155 -10.8856 3.23018 3.43996 -2.23227 -13.8231 -0.556879 -0.06732 3.92192 -14.6723 -4.10764 
-250.917 96.0076 222.4 1.06072 0.748539 124.043 0 0 0 8.87562 -11.5389 0.713495 -11.1754 13.2739 2.48617 8.01942 12.6818 -2.75855 -2.09658 7.2715 1.04182 -28.7598 3.27863 -5.88813 -45.4309 -0.88132 -1.41819 -9.05999 -5.91465 -57.1282 -30.0129 -1.15621 4.31697 24.5481 5.25901 13.4745 48.2282 7.4884 3.45107 24.431 -15.6815 59.2476 4.1101 0.0724539 2.04206 -0.493366 0.597013 4.47651 2.80052 7.08012 1.56484 0.916948 -7.57111 0.06075 0.919352 -0.353365 -3.79933 -3.87621 3.47378 -10.8836 3.29413 3.49861 -2.34583 -14.2283 -0.425325 -0.0530303 4.01075 -15.05 -4.17967 
-250.887 96.0097 222.428 1.09328 0.805775 124.122 0 0 0 8.82849 -11.3394 0.773516 -11.172 13.1658 2.55422 8.06702 12.5458 -1.02575 -3.18356 7.41697 3.09566 -28.8083 3.27607 -5.86795 -45.4587 -0.706006 -1.44429 -9.66617 -6.3056 -57.1847 -28.4065 -0.973079 3.84748 24.4854 5.26489 13.5253 48.207 7.04443 3.20413 23.4862 -15.0911 59.0712 5.10362 0.0755828 1.69463 -0.518218 0.642977 4.45035 2.84503 7.19837 1.68555 0.988059 -7.88662 0.0681935 0.941759 -0.588962 -3.86156 -3.87056 3.55491 -10.8546 3.19707 3.51813 -2.37069 -13.6012 -0.663446 -0.0791601 3.91952 -14.6565 -3.91462 
-250.887 96.0216 222.423 1.05387 0.805432 124.179 0 0 0 8.65826 -11.2716 0.845784 -10.8352 13.1252 2.57889 7.62819 12.5852 0.640817 -3.03911 7.72381 4.5526 -29.482 3.34286 -5.88159 -44.8977 -0.496137 -1.32481 -10.5174 -6.84549 -57.2988 -27.8749 -0.995271 4.00882 24.0015 5.13117 13.3489 48.6994 7.3639 3.27942 24.7274 -15.8502 59.3292 4.47315 0.0781331 1.99467 -0.591724 0.732977 4.30389 2.94761 6.85283 1.64641 0.725229 -7.60853 0.0481842 0.902264 -0.235525 -3.74438 -3.89156 3.52604 -10.919 3.17426 3.56431 -2.51645 -13.4224 -0.960422 -0.113057 3.78473 -14.0925 -3.77705 
-250.884 96.035 222.436 1.00543 0.821233 124.219 0 0 0 8.60537 -11.1551 0.933841 -10.8221 13.1 2.68202 7.56943 12.3864 1.41603 -3.16539 7.75338 5.32568 -29.6466 3.34321 -5.84004 -44.8834 -0.165951 -1.39425 -11.2606 -7.33309 -57.3377 -27.2944 -1.00421 4.13435 23.8538 5.11347 13.3686 48.8772 7.21299 3.19741 24.7222 -15.7831 59.4272 4.40655 0.0707238 1.84145 -0.6467 0.718426 4.26223 2.95524 6.8138 1.72544 0.811933 -7.51339 0.0532576 0.93708 -0.618766 -3.8371 -3.97318 3.48782 -11.0206 3.25791 3.61256 -2.35294 -13.3287 -0.934143 -0.108908 3.71983 -13.8196 -3.94406 
-250.876 96.0155 222.436 1.02004 0.77823 124.252 0 0 0 8.72735 -10.8329 0.974862 -10.9697 12.6908 2.75765 7.6541 12.4515 2.05685 -3.21578 7.66839 6.01592 -29.5806 3.35484 -5.88951 -45.0247 -0.0229786 -1.52175 -12.1529 -8.01337 -57.0831 -26.9009 -1.0602 4.43098 24.0475 5.14114 13.3565 48.674 6.7563 3.06301 23.0243 -14.9153 58.7984 5.61034 0.0757222 1.55479 -0.565495 0.667491 4.31211 2.87213 6.84733 1.69149 1.0769 -7.45125 0.0701357 0.997046 -0.944206 -4.05128 -3.9059 3.46193 -10.9861 3.2813 3.59877 -2.42663 -13.8708 -0.640938 -0.0780878 3.90297 -14.5936 -4.11485 
-250.858 96.0238 222.448 1.03063 0.79378 124.291 0 0 0 8.69604 -10.5913 1.02845 -11.139 12.5049 2.8649 8.05669 12.327 2.50664 -3.34132 7.58723 6.64994 -29.4369 3.35668 -5.9318 -45.252 -0.0527864 -2.33839 -12.9207 -8.82456 -56.229 -26.4347 -1.12756 4.79815 24.2363 5.20709 13.4709 48.5079 6.0402 2.87505 21.384 -13.9873 58.3142 7.10077 0.0783235 1.25687 -0.54843 0.687749 4.33787 2.87216 6.88958 1.72674 1.0804 -7.65212 0.0722857 0.973786 -0.981726 -3.94473 -3.88491 3.48245 -10.9599 3.26055 3.62046 -2.5294 -13.9668 -0.634662 -0.0777755 3.98397 -14.9361 -4.14919 
-250.837 96.0257 222.462 1.01781 0.77044 124.34 0 0 0 8.59322 -10.6412 1.09729 -11.1307 12.7308 2.95124 8.15382 11.8953 2.7621 -3.32551 7.6019 6.90584 -29.5224 3.36611 -5.93577 -44.9974 0.489698 -1.54896 -13.9996 -9.23695 -57.2256 -25.6761 -1.105 4.84562 24.2161 5.13579 13.2519 48.4274 5.92007 3.16019 20.1267 -13.3535 57.7803 7.89259 0.091798 1.3267 -0.47744 0.589395 4.41533 2.81933 7.06205 1.51652 1.16754 -7.70782 0.0786908 0.924205 -0.729061 -3.76708 -3.79522 3.44358 -10.821 3.12622 3.64443 -2.66736 -13.7124 -0.645288 -0.0775587 3.91965 -14.6614 -4.07065 
-250.837 96.0255 222.444 0.990596 0.696773 124.373 0 0 0 8.69649 -10.5628 1.22164 -11.3371 12.5844 3.13705 8.72878 11.9313 2.45168 -3.45327 7.40709 6.859 -29.0925 3.39482 -6.13142 -45.6348 0.438159 -1.82597 -14.331 -9.62822 -56.7879 -25.3116 -1.06044 4.71985 24.5275 5.18366 13.2454 48.2019 5.98939 2.8769 20.3879 -13.4968 57.8722 7.74054 0.117977 1.74535 -0.430822 0.536694 4.40071 2.81587 6.94676 1.2359 0.957703 -7.37381 0.0615565 0.810465 -0.683747 -3.28557 -3.74458 3.41151 -10.8083 3.09903 3.63473 -2.8414 -13.6621 -0.846132 -0.101399 3.85723 -14.3933 -3.7445 
-250.839 96.0234 222.43 0.967791 0.682575 124.367 0 0 0 8.79919 -10.4228 1.39784 -11.7675 12.4011 3.42233 9.69846 12.0722 1.97446 -3.8102 7.01197 6.87164 -28.3959 3.45137 -6.48159 -46.3378 0.51188 -1.58121 -14.824 -10.0195 -56.6797 -24.8336 -1.02394 4.64864 25.0682 5.23427 13.1304 48.177 6.54831 2.63817 23.1437 -15.0966 58.6451 6.22935 0.14311 2.68327 -0.424117 0.527208 4.43263 2.79919 6.95413 1.35714 0.623298 -7.5997 0.0415743 0.868369 -0.318381 -3.58784 -3.75477 3.35736 -10.7926 3.07295 3.68921 -2.83775 -13.4325 -0.887228 -0.104399 3.85695 -14.3932 -3.78259 
